<svg fill="grey" height="17px" width="17px" version="1.1" id="Capa_1" xmlns="http://www.w3.org/2000/svg" xmlns:xlink="http://www.w3.org/1999/xlink"
     viewBox="0 0 251.247 251.247" xml:space="preserve">
<path d="M248.611,119.259l-51.005-51.005c-3.516-3.515-9.213-3.515-12.729,0c-3.515,3.515-3.515,9.213,0,12.728l35.642,35.641
 H30.728l35.642-35.641c3.515-3.515,3.515-9.213,0-12.728c-3.516-3.515-9.213-3.515-12.729,0L2.636,119.259
 c-3.515,3.515-3.515,9.213,0,12.728l51.005,51.005c1.758,1.757,4.061,2.636,6.364,2.636s4.606-0.879,6.364-2.636
 c3.515-3.515,3.515-9.213,0-12.728l-35.642-35.641h189.791l-35.642,35.641c-3.515,3.515-3.515,9.213,0,12.728
 c1.758,1.757,4.061,2.636,6.364,2.636s4.606-0.879,6.364-2.636l51.005-51.005C252.125,128.472,252.125,122.774,248.611,119.259z"/>
</svg>